<svg width="24" height="24" viewBox="0 0 24 24" fill="currentColor" xmlns="http://www.w3.org/2000/svg">
<path d="M22 0H2C1.46957 0 0.960859 0.210714 0.585786 0.585786C0.210714 0.960859 0 1.46957 0 2V22C0 22.5304 0.210714 23.0391 0.585786 23.4142C0.960859 23.7893 1.46957 24 2 24H22C22.5304 24 23.0391 23.7893 23.4142 23.4142C23.7893 23.0391 24 22.5304 24 22V2C24 1.46957 23.7893 0.960859 23.4142 0.585786C23.0391 0.210714 22.5304 0 22 0ZM10.7075 14.7075L6.7075 18.7075C6.61463 18.8005 6.50434 18.8742 6.38294 18.9246C6.26154 18.9749 6.13142 19.0008 6 19.0008C5.86859 19.0008 5.73846 18.9749 5.61706 18.9246C5.49566 18.8742 5.38537 18.8005 5.2925 18.7075L3.2925 16.7075C3.10486 16.5199 2.99944 16.2654 2.99944 16C2.99944 15.7346 3.10486 15.4801 3.2925 15.2925C3.48014 15.1049 3.73464 14.9994 4 14.9994C4.26536 14.9994 4.51986 15.1049 4.7075 15.2925L6 16.5863L9.2925 13.2925C9.48014 13.1049 9.73464 12.9994 10 12.9994C10.2654 12.9994 10.5199 13.1049 10.7075 13.2925C10.8951 13.4801 11.0006 13.7346 11.0006 14C11.0006 14.2654 10.8951 14.5199 10.7075 14.7075ZM10.7075 6.7075L6.7075 10.7075C6.61463 10.8005 6.50434 10.8742 6.38294 10.9246C6.26154 10.9749 6.13142 11.0008 6 11.0008C5.86859 11.0008 5.73846 10.9749 5.61706 10.9246C5.49566 10.8742 5.38537 10.8005 5.2925 10.7075L3.2925 8.7075C3.19959 8.61459 3.12589 8.50429 3.07561 8.3829C3.02532 8.2615 2.99944 8.1314 2.99944 8C2.99944 7.73464 3.10486 7.48014 3.2925 7.2925C3.48014 7.10486 3.73464 6.99944 4 6.99944C4.26536 6.99944 4.51986 7.10486 4.7075 7.2925L6 8.58625L9.2925 5.2925C9.48014 5.10486 9.73464 4.99944 10 4.99944C10.2654 4.99944 10.5199 5.10486 10.7075 5.2925C10.8951 5.48014 11.0006 5.73464 11.0006 6C11.0006 6.26536 10.8951 6.51986 10.7075 6.7075ZM20 17H14C13.7348 17 13.4804 16.8946 13.2929 16.7071C13.1054 16.5196 13 16.2652 13 16C13 15.7348 13.1054 15.4804 13.2929 15.2929C13.4804 15.1054 13.7348 15 14 15H20C20.2652 15 20.5196 15.1054 20.7071 15.2929C20.8946 15.4804 21 15.7348 21 16C21 16.2652 20.8946 16.5196 20.7071 16.7071C20.5196 16.8946 20.2652 17 20 17ZM20 9H14C13.7348 9 13.4804 8.89464 13.2929 8.70711C13.1054 8.51957 13 8.26522 13 8C13 7.73478 13.1054 7.48043 13.2929 7.29289C13.4804 7.10536 13.7348 7 14 7H20C20.2652 7 20.5196 7.10536 20.7071 7.29289C20.8946 7.48043 21 7.73478 21 8C21 8.26522 20.8946 8.51957 20.7071 8.70711C20.5196 8.89464 20.2652 9 20 9Z" />
</svg>
