<svg width="24" height="24" viewBox="0 0 24 24" fill="none" xmlns="http://www.w3.org/2000/svg">
<g clip-path="url(#clip0_4244_2639)">
<path d="M-0.000244141 7.2C-0.000244141 4.20021 -0.000244141 2.70032 0.763688 1.64886C1.01041 1.30928 1.30904 1.01065 1.64861 0.763932C2.70008 0 4.19997 0 7.19976 0H16.7998C19.7995 0 21.2994 0 22.3509 0.763932C22.6905 1.01065 22.9891 1.30928 23.2358 1.64886C23.9998 2.70032 23.9998 4.20021 23.9998 7.2V16.8C23.9998 19.7998 23.9998 21.2997 23.2358 22.3511C22.9891 22.6907 22.6905 22.9894 22.3509 23.2361C21.2994 24 19.7995 24 16.7998 24H7.19976C4.19997 24 2.70008 24 1.64861 23.2361C1.30904 22.9894 1.01041 22.6907 0.763688 22.3511C-0.000244141 21.2997 -0.000244141 19.7998 -0.000244141 16.8V7.2Z" fill="#0E1412"/>
<path opacity="0.9" d="M6.99866 12H16.9987" stroke="#33CE39" stroke-width="2" stroke-linecap="round" stroke-linejoin="round"/>
</g>
<defs>
<clipPath id="clip0_4244_2639">
<rect width="24" height="24" fill="white"/>
</clipPath>
</defs>
</svg>
