<svg width="375" height="96" viewBox="0 0 375 96" fill="none" xmlns="http://www.w3.org/2000/svg">
<path d="M299.904 52.0139C296.581 39.6106 294.919 33.409 296.702 28.1564C297.474 25.8826 298.686 23.783 300.269 21.9776C303.927 17.8072 310.128 16.1455 322.532 12.822C334.935 9.4986 341.137 7.83687 346.389 9.61987C348.663 10.3917 350.763 11.6039 352.568 13.1872C356.738 16.8446 358.4 23.0462 361.724 35.4495C365.047 47.8527 366.709 54.0543 364.926 59.3069C364.154 61.5808 362.942 63.6803 361.358 65.4857C357.701 69.6561 351.499 71.3178 339.096 74.6413C326.693 77.9647 320.491 79.6265 315.239 77.8435C312.965 77.0716 310.865 75.8594 309.06 74.2761C304.889 70.6188 303.228 64.4171 299.904 52.0139Z" fill="#00F091"/>
<g clip-path="url(#clip0_4261_611)">
<path d="M322.194 58.6619L328.081 57.0845L328.87 60.0285L320.039 62.3948L317.672 53.5628L320.616 52.7739L322.194 58.6619ZM331.025 56.2956L328.081 57.0845L327.292 54.1405L330.236 53.3517L331.025 56.2956ZM327.292 54.1405L324.349 54.9291L323.56 51.9851L326.503 51.1965L327.292 54.1405ZM333.18 52.5628L330.236 53.3517L329.447 50.4077L332.391 49.6188L333.18 52.5628ZM323.56 51.9851L320.616 52.7739L319.828 49.8309L322.772 49.042L323.56 51.9851ZM335.335 48.83L332.391 49.6188L331.603 46.6758L334.547 45.8869L335.335 48.83ZM325.715 48.2534L322.772 49.042L321.983 46.098L324.926 45.3094L325.715 48.2534ZM337.491 45.0981L334.547 45.8869L333.758 42.9429L336.702 42.1541L337.491 45.0981ZM327.87 44.5206L324.926 45.3094L324.137 42.3654L327.081 41.5766L327.87 44.5206ZM339.645 41.3655L336.702 42.1541L335.913 39.2101L338.856 38.4215L339.645 41.3655ZM330.025 40.7878L327.081 41.5766L326.292 38.6326L329.236 37.8438L330.025 40.7878ZM336.49 29.5904L339.434 28.8016L340.223 31.7456L343.167 30.9567L343.955 33.8998L341.011 34.6886L341.8 37.6326L338.856 38.4215L338.067 35.4775L335.124 36.2661L334.336 33.323L331.392 34.1119L330.603 31.1679L333.547 30.379L332.758 27.435L335.701 26.6464L336.49 29.5904ZM332.18 37.0549L329.236 37.8438L328.448 34.9007L331.392 34.1119L332.18 37.0549Z" fill="#0E1412"/>
</g>
<path d="M229.096 37.2576C232.42 24.8543 234.081 18.6527 238.252 14.9954C240.057 13.4121 242.157 12.1999 244.431 11.428C249.683 9.64501 255.885 11.3067 268.288 14.6302C280.691 17.9536 286.893 19.6153 290.55 23.7857C292.134 25.5911 293.346 27.6907 294.118 29.9646C295.901 35.2171 294.239 41.4187 290.915 53.822C287.592 66.2253 285.93 72.4269 281.76 76.0842C279.955 77.6675 277.855 78.8797 275.581 79.6516C270.329 81.4346 264.127 79.7729 251.724 76.4494C239.32 73.126 233.119 71.4643 229.461 67.2939C227.878 65.4885 226.666 63.3889 225.894 61.115C224.111 55.8625 225.773 49.6608 229.096 37.2576Z" fill="#00F091"/>
<g clip-path="url(#clip1_4261_611)">
<path d="M273.707 38.5625L268.383 58.4329L246.305 52.5169L251.629 32.6466L273.707 38.5625ZM252.654 37.6538L249.104 50.9013L266.766 55.6339L270.316 42.3864L252.654 37.6538ZM258.823 49.9557L256.615 49.364L257.206 47.1558L259.415 47.7475L258.823 49.9557ZM257.206 47.1558L254.999 46.5644L255.59 44.3571L257.798 44.9485L257.206 47.1558ZM261.622 48.3389L259.415 47.7475L260.006 45.5402L262.213 46.1317L261.622 48.3389ZM264.421 46.7234L262.213 46.1317L262.805 43.9234L265.013 44.5151L264.421 46.7234Z" fill="#0E1412"/>
</g>
<path d="M157.904 50.0139C154.581 37.6106 152.919 31.409 154.702 26.1564C155.474 23.8826 156.686 21.783 158.269 19.9776C161.927 15.8072 168.128 14.1455 180.532 10.822C192.935 7.4986 199.137 5.83687 204.389 7.61987C206.663 8.39175 208.763 9.60394 210.568 11.1872C214.738 14.8446 216.4 21.0462 219.724 33.4495C223.047 45.8527 224.709 52.0543 222.926 57.3069C222.154 59.5808 220.942 61.6803 219.358 63.4857C215.701 67.6561 209.499 69.3178 197.096 72.6413C184.693 75.9647 178.491 77.6265 173.239 75.8435C170.965 75.0716 168.865 73.8594 167.06 72.2761C162.889 68.6188 161.228 62.4171 157.904 50.0139Z" fill="#00F091"/>
<g clip-path="url(#clip2_4261_611)">
<path d="M207.477 52.5068L204.533 53.2957L203.744 50.3517L206.688 49.5629L207.477 52.5068ZM203.744 50.3517L200.8 51.1405L200.011 48.1965L202.955 47.4077L203.744 50.3517ZM194.123 49.7742L182.348 52.9293L181.559 49.9853L193.334 46.8302L194.123 49.7742ZM200.011 48.1965L197.067 48.9854L196.278 46.0414L199.222 45.2525L200.011 48.1965ZM181.559 49.9853L178.616 50.7739L177.827 47.8299L180.77 47.0413L181.559 49.9853ZM196.278 46.0414L193.334 46.8302L192.546 43.8862L195.49 43.0974L196.278 46.0414ZM177.827 47.8299L174.883 48.6188L171.728 36.8437L174.672 36.0549L177.827 47.8299ZM198.434 42.3085L195.49 43.0974L192.334 31.3223L195.278 30.5335L198.434 42.3085ZM177.615 35.2663L174.672 36.0549L173.884 33.1118L176.827 32.3232L177.615 35.2663ZM192.334 31.3223L189.39 32.1112L188.602 29.1681L191.546 28.3793L192.334 31.3223ZM188.602 29.1681L176.827 32.3232L176.038 29.3792L187.813 26.2241L188.602 29.1681Z" fill="#0E1412"/>
</g>
<rect x="4.99463" y="21.7891" width="64" height="64" rx="18.2857" transform="rotate(-15 4.99463 21.7891)" fill="#00F091"/>
<g clip-path="url(#clip3_4261_611)">
<path d="M35.341 34.955L47.1161 31.7999L47.9049 34.7436L36.1298 37.8988L35.341 34.955ZM31.031 42.4201L30.2422 39.4763L36.1298 37.8988L36.9186 40.8425L31.031 42.4201ZM28.876 46.1526L28.0873 43.2089L31.031 42.4201L31.8198 45.3639L28.876 46.1526ZM29.6648 49.0964L28.876 46.1526L25.9323 46.9414L26.721 49.8852L29.6648 49.0964ZM33.3974 51.2514L30.4536 52.0402L29.6648 49.0964L32.6086 48.3076L33.3974 51.2514ZM40.0737 52.6176L34.1862 54.1952L33.3974 51.2514L39.2849 49.6738L40.0737 52.6176ZM51.8488 49.4625L52.6376 52.4063L40.8625 55.5614L40.0737 52.6176L51.8488 49.4625ZM56.9476 44.9412L57.7363 47.8849L51.8488 49.4625L51.06 46.5187L56.9476 44.9412ZM59.1026 41.2086L59.8913 44.1524L56.9476 44.9412L56.1588 41.9974L59.1026 41.2086ZM58.3138 38.2648L61.2576 37.476L62.0463 40.4198L59.1026 41.2086L58.3138 38.2648ZM54.5812 36.1098L57.525 35.3211L58.3138 38.2648L55.37 39.0536L54.5812 36.1098ZM54.5812 36.1098L53.7924 33.1661L47.9049 34.7436L48.6937 37.6874L54.5812 36.1098ZM40.2567 41.5256L46.1443 39.9481L47.7219 45.8356L41.8343 47.4132L40.2567 41.5256Z" fill="#0E1412"/>
</g>
<g clip-path="url(#clip4_4261_611)">
<path d="M89.814 33.7474C96.2344 22.6269 99.4446 17.0667 104.419 14.6133C106.573 13.5513 108.915 12.9238 111.311 12.7667C116.846 12.4039 122.406 15.6141 133.527 22.0345C144.647 28.4549 150.207 31.6651 152.661 36.64C153.723 38.7937 154.35 41.1355 154.507 43.5316C154.87 49.0667 151.66 54.6269 145.24 65.7474C138.819 76.8678 135.609 82.428 130.634 84.8814C128.48 85.9435 126.139 86.5709 123.742 86.728C118.207 87.0908 112.647 83.8806 101.527 77.4602C90.4063 71.0398 84.8461 67.8296 82.3928 62.8547C81.3307 60.701 80.7032 58.3593 80.5462 55.9631C80.1834 50.428 83.3936 44.8678 89.814 33.7474Z" fill="#00F091"/>
<g clip-path="url(#clip5_4261_611)">
<path d="M133.594 49.3467L130.955 47.8228L132.479 45.1833L129.839 43.6594L128.315 46.2989L125.677 44.7754L127.201 42.1359L129.839 43.6594L131.363 41.0198L128.724 39.4964L130.248 36.8569L114.412 27.7138L99.1738 54.1073L122.928 67.8217L133.594 49.3467ZM115.528 31.8773L126.085 37.9725L121.514 45.8902L129.431 50.4615L121.812 63.6582L103.337 52.9917L115.528 31.8773ZM118.874 44.3671L120.398 41.7276L115.119 38.6802L113.595 41.3197L118.874 44.3671ZM125.268 51.5771L112.072 43.9584L110.548 46.5979L123.744 54.2166L125.268 51.5771ZM116.942 53.8087L109.024 49.2374L107.5 51.877L115.418 56.4483L116.942 53.8087Z" fill="#0E1412"/>
</g>
</g>
<defs>
<clipPath id="clip0_4261_611">
<rect width="36.5714" height="36.5714" fill="white" transform="translate(308.418 30.8017) rotate(-15)"/>
</clipPath>
<clipPath id="clip1_4261_611">
<rect width="27.4286" height="27.4286" fill="white" transform="translate(250.309 28.7433) rotate(15)"/>
</clipPath>
<clipPath id="clip2_4261_611">
<rect width="36.5714" height="36.5714" fill="white" transform="translate(166.418 28.8017) rotate(-15)"/>
</clipPath>
<clipPath id="clip3_4261_611">
<rect width="36.5714" height="36.5714" fill="white" transform="translate(21.1997 29.2787) rotate(-15)"/>
</clipPath>
<clipPath id="clip4_4261_611">
<path d="M89.814 33.7474C96.2344 22.6269 99.4446 17.0667 104.419 14.6133C106.573 13.5513 108.915 12.9238 111.311 12.7667C116.846 12.4039 122.406 15.6141 133.527 22.0345C144.647 28.4549 150.207 31.6651 152.661 36.64C153.723 38.7937 154.35 41.1355 154.507 43.5316C154.87 49.0667 151.66 54.6269 145.24 65.7474C138.819 76.8678 135.609 82.428 130.634 84.8814C128.48 85.9435 126.139 86.5709 123.742 86.728C118.207 87.0908 112.647 83.8806 101.527 77.4602C90.4063 71.0398 84.8461 67.8296 82.3928 62.8547C81.3307 60.701 80.7032 58.3593 80.5462 55.9631C80.1834 50.428 83.3936 44.8678 89.814 33.7474Z" fill="white"/>
</clipPath>
<clipPath id="clip5_4261_611">
<rect width="36.5714" height="36.5714" fill="white" transform="translate(111.977 22.7891) rotate(30)"/>
</clipPath>
</defs>
</svg>
