<svg width="16" height="16" viewBox="0 0 16 16" fill="none" xmlns="http://www.w3.org/2000/svg">
<g clip-path="url(#clip0_4244_476)">
<path d="M8 16C12.4183 16 16 12.4183 16 8C16 3.58172 12.4183 0 8 0C3.58172 0 0 3.58172 0 8C0 12.4183 3.58172 16 8 16Z" fill="#00F091"/>
<path d="M8 13.3333C8.55228 13.3333 9 12.8856 9 12.3333C9 11.7811 8.55228 11.3333 8 11.3333C7.44772 11.3333 7 11.7811 7 12.3333C7 12.8856 7.44772 13.3333 8 13.3333Z" fill="#0E1412"/>
<path d="M8.00016 9.33333V8.66667C9.47266 8.66667 10.6668 7.62167 10.6668 6.33333C10.6668 5.045 9.47266 4 8.00016 4C6.52766 4 5.3335 5.045 5.3335 6.33333V6.66667" stroke="#0E1412" stroke-width="1.5" stroke-linecap="round" stroke-linejoin="round"/>
</g>
<defs>
<clipPath id="clip0_4244_476">
<rect width="16" height="16" fill="white"/>
</clipPath>
</defs>
</svg>
