<svg width="16" height="16" viewBox="0 0 16 16" fill="none" xmlns="http://www.w3.org/2000/svg">
<g clip-path="url(#clip0_4244_843)">
<path fill-rule="evenodd" clip-rule="evenodd" d="M3.4448 1.30615H12.5553C12.7727 1.30615 12.9735 1.42244 13.082 1.61111L15.7362 6.23017C15.8739 6.46971 15.833 6.77205 15.6366 6.9663L8.33068 14.1946C8.09401 14.4287 7.7133 14.4287 7.47663 14.1946L0.180546 6.97606C-0.0203522 6.7773 -0.0579716 6.46615 0.0897593 6.22511L2.92697 1.59629C3.03747 1.41602 3.23354 1.30615 3.4448 1.30615ZM11.379 3.36841V4.66445H8.78377V5.56303C10.6065 5.65907 11.974 6.05345 11.9842 6.52617L11.9841 7.51167C11.9739 7.98439 10.6065 8.37877 8.78377 8.4748V10.68H7.0605V8.4748C5.23778 8.37877 3.87027 7.98439 3.86015 7.51167L3.86018 6.52617C3.87033 6.05345 5.23778 5.65907 7.0605 5.56303V4.66445H4.46527V3.36841H11.379ZM7.92215 7.79778C9.8673 7.79778 11.4931 7.46429 11.891 7.01894C11.5536 6.64127 10.3332 6.34403 8.78377 6.2624V7.20323C8.50609 7.21786 8.21779 7.22556 7.92215 7.22556C7.62648 7.22556 7.33822 7.21786 7.0605 7.20323V6.2624C5.51112 6.34403 4.29068 6.64127 3.95327 7.01894C4.35115 7.46429 5.97698 7.79778 7.92215 7.79778Z" fill="#00F091"/>
</g>
<defs>
<clipPath id="clip0_4244_843">
<rect width="16" height="13.3878" fill="white" transform="translate(0 1.30615)"/>
</clipPath>
</defs>
</svg>
